<?xml version="1.0" standalone="no"?>
<!DOCTYPE svg PUBLIC "-//W3C//DTD SVG 20010904//EN"
 "http://www.w3.org/TR/2001/REC-SVG-20010904/DTD/svg10.dtd">
<svg version="1.0" xmlns="http://www.w3.org/2000/svg"
 width="320.000000pt" height="320.000000pt" viewBox="0 0 320.000000 320.000000"
 preserveAspectRatio="xMidYMid meet">
<metadata>
Created by potrace 1.11, written by Peter Selinger 2001-2013
</metadata>
<g transform="translate(0.000000,320.000000) scale(0.100000,-0.100000)"
fill="#000000" stroke="none">
<path d="M434 2490 c-80 -18 -124 -70 -129 -152 -8 -132 57 -190 211 -191 59
0 90 4 119 19 73 35 108 119 86 204 -14 53 -43 87 -91 108 -39 16 -148 23
-196 12z"/>
<path d="M2039 2450 c-1 -20 -1 -1540 0 -1562 1 -17 17 -18 200 -18 l199 0 0
128 c1 70 1 141 1 158 1 26 11 39 60 78 33 25 63 46 68 46 4 0 35 -45 68 -101
33 -55 69 -115 80 -133 11 -18 40 -65 64 -104 l43 -72 189 0 189 0 0 61 c0 71
17 39 -202 380 l-145 226 124 154 c68 85 134 165 146 179 54 59 77 98 77 128
0 19 -5 32 -12 33 -7 0 -96 0 -197 0 -179 -1 -185 -1 -202 -23 -10 -13 -72
-91 -138 -174 -66 -84 -145 -189 -177 -235 l-56 -83 7 44 c9 62 16 900 7 901
-4 0 -94 1 -200 2 -164 2 -192 0 -193 -13z"/>
<path d="M1415 2040 c-65 -15 -144 -59 -186 -104 -24 -25 -49 -46 -55 -46 -7
0 -22 32 -35 70 l-23 70 -38 0 c-21 1 -76 1 -123 1 -47 0 -98 0 -114 -1 l-29
0 0 -387 0 -387 -27 -23 c-14 -13 -32 -23 -39 -23 -8 0 -16 -9 -19 -21 -4 -14
1 -22 17 -29 l23 -8 -20 -95 c-24 -116 -19 -140 33 -167 35 -18 59 -20 235
-20 l195 0 1 23 c1 12 1 30 0 39 -1 9 5 39 14 65 20 59 21 148 1 178 -12 18
-14 55 -12 186 4 208 22 284 78 337 14 12 35 25 46 27 12 3 32 7 44 10 12 2
39 0 60 -6 47 -12 83 -64 95 -135 5 -27 8 -201 8 -387 l0 -337 200 2 200 3 0
394 c0 426 -6 495 -50 584 -41 85 -135 162 -221 183 -41 10 -223 12 -259 4z"/>
<path d="M355 2030 l-40 -5 -2 -390 c-2 -214 -3 -403 -3 -419 l0 -29 -24 22
c-33 31 -92 32 -134 3 -65 -47 -109 -207 -75 -275 17 -33 75 -61 106 -51 12 4
35 16 51 27 l28 20 -7 -22 c-5 -18 -3 -21 24 -21 17 0 31 -4 31 -10 0 -6 73
-10 200 -10 l200 0 1 23 c0 12 2 273 2 579 l2 558 -75 0 c-41 1 -113 2 -160 3
-47 1 -103 0 -125 -3z m-85 -891 c20 -35 2 -117 -33 -156 -43 -48 -84 -19 -78
52 9 93 81 161 111 104z"/>
</g>
</svg>
